<svg xmlns="http://www.w3.org/2000/svg" viewBox="0 0 512 512" role="img" aria-label="Nemo"><defs><mask id="nemo-f-sil" maskUnits="userSpaceOnUse" x="-512" y="-512" width="1536" height="1536"><g fill="#fff"><path d="M150 206C197.11 176.3 236.37 140 307.04 140C394.02 140 452 186.4 452 256C452 325.6 394.02 372 307.04 372C236.37 372 197.11 335.7 150 306Z"/><path d="M174 206C125.4 206 80.3 172 68 172C50 218.2 50 293.8 68 340C80.3 340 125.4 306 174 306Z"/></g></mask><linearGradient id="nemo-plate-fill" x1="0.15" y1="0.15" x2="0.85" y2="0.85"><stop offset="0" stop-color="#A8E0E6"/><stop offset="1" stop-color="#5DB7C6"/></linearGradient><clipPath id="nemo-plate-clip"><rect width="512" height="512" rx="112"/></clipPath></defs><rect width="512" height="512" rx="112" fill="url(#nemo-plate-fill)"/><g clip-path="url(#nemo-plate-clip)"><g transform="translate(132 268) scale(1.7) rotate(-6) translate(-253.25 -256)"><g><g fill="#F26A1E"><path d="M150 206C197.11 176.3 236.37 140 307.04 140C394.02 140 452 186.4 452 256C452 325.6 394.02 372 307.04 372C236.37 372 197.11 335.7 150 306Z"/><path d="M174 206C125.4 206 80.3 172 68 172C50 218.2 50 293.8 68 340C80.3 340 125.4 306 174 306Z"/></g><g mask="url(#nemo-f-sil)" fill="none"><path d="M361.4 100Q325.4 256 361.4 412" stroke="#14202B" stroke-width="64"/><path d="M361.4 100Q325.4 256 361.4 412" stroke="#FFFFFF" stroke-width="46"/><path d="M240.6 100Q216.6 256 240.6 412" stroke="#14202B" stroke-width="64"/><path d="M240.6 100Q216.6 256 240.6 412" stroke="#FFFFFF" stroke-width="46"/></g><circle cx="409.72" cy="235.12" r="21" fill="#14202B"/></g></g></g></svg>
